<svg width="40" height="40" viewBox="0 0 40 40" fill="none" xmlns="http://www.w3.org/2000/svg">
<rect x="0.5" y="0.5" width="39" height="39" rx="19.5" stroke="black"/>
<path d="M20.0078 12.6865C20.0934 12.6866 20.1668 12.7128 20.249 12.7949C20.3313 12.8809 20.3574 12.958 20.3574 13.0439C20.3573 13.1308 20.3308 13.2048 20.249 13.2871L13.8877 19.6484H27.2979C27.4194 19.6485 27.4945 19.6838 27.5586 19.7471C27.6207 19.8084 27.6553 19.8801 27.6553 20C27.6553 20.1199 27.6207 20.1916 27.5586 20.2529C27.4945 20.3162 27.4194 20.3515 27.2979 20.3516H13.8877L20.2432 26.707V26.7061C20.3254 26.7885 20.3537 26.8653 20.3545 26.957V26.958C20.355 27.0245 20.3404 27.0829 20.2988 27.1426L20.2471 27.2041C20.1671 27.2851 20.0939 27.3113 20.0049 27.3105C19.9104 27.3096 19.8321 27.2796 19.749 27.1973L12.8008 20.249C12.7476 20.1949 12.7219 20.1527 12.71 20.124V20.123C12.6949 20.0867 12.6865 20.0466 12.6865 19.999C12.6866 19.9514 12.6952 19.9123 12.71 19.877V19.876C12.7218 19.8475 12.7473 19.8051 12.8008 19.751L19.751 12.8008C19.8414 12.7136 19.9211 12.6865 20.0078 12.6865Z" fill="black" stroke="black"/>
</svg>
