<svg width="40" height="40" viewBox="0 0 40 40" fill="none" xmlns="http://www.w3.org/2000/svg">
<rect x="0.5" y="0.5" width="39" height="39" rx="19.5" stroke="black"/>
<path d="M19.9951 12.6895C20.0661 12.6901 20.1279 12.7068 20.1895 12.75L20.251 12.8027L27.1992 19.751C27.2524 19.8051 27.2781 19.8473 27.29 19.876V19.877C27.3052 19.9133 27.3135 19.9534 27.3135 20.001C27.3134 20.0486 27.3048 20.0877 27.29 20.123V20.124C27.2782 20.1525 27.2527 20.1948 27.1992 20.249L20.2451 27.1973C20.1538 27.2875 20.0752 27.3135 19.9922 27.3135C19.9115 27.3134 19.8393 27.2889 19.7559 27.2031L19.751 27.1982L19.6992 27.1377C19.6571 27.0781 19.6426 27.02 19.6426 26.9551C19.6426 26.8904 19.6573 26.8328 19.6992 26.7734L19.751 26.7129L26.1123 20.3516H12.7021C12.5801 20.3515 12.5078 20.3164 12.4473 20.2559H12.4463C12.3854 20.195 12.3506 20.122 12.3506 20C12.3506 19.878 12.3854 19.805 12.4463 19.7441H12.4473C12.5078 19.6836 12.58 19.6485 12.7021 19.6484H26.1123L19.7568 13.293C19.6955 13.2316 19.6637 13.1732 19.6514 13.1084L19.6455 13.041C19.6446 12.9511 19.6708 12.8775 19.751 12.7969L19.752 12.7959C19.8321 12.7153 19.9055 12.6887 19.9951 12.6895Z" fill="black" stroke="black"/>
</svg>
