<svg width="28" height="28" viewBox="0 0 28 28" fill="none" xmlns="http://www.w3.org/2000/svg">
<path d="M14.8866 1.86667C14.595 1.86667 14.2916 1.86667 14 1.86667C13.7083 1.86667 13.405 1.86667 13.1133 1.86667C7.27996 2.43834 4.15329 9.03 6.91829 14.1633L13.1016 25.6667C13.1877 25.8304 13.3169 25.9674 13.4752 26.063C13.6336 26.1587 13.815 26.2092 14 26.2092C14.1849 26.2092 14.3664 26.1587 14.5247 26.063C14.683 25.9674 14.8122 25.8304 14.8983 25.6667L21.0816 14.1983C23.8466 9.03 20.685 2.43834 14.8866 1.86667Z" stroke="white" stroke-width="1.5" stroke-linecap="round" stroke-linejoin="bevel"/>
<path d="M16.9168 9.91667C16.9168 8.30584 15.611 7 14.0002 7C12.3893 7 11.0835 8.30584 11.0835 9.91667C11.0835 11.5275 12.3893 12.8333 14.0002 12.8333C15.611 12.8333 16.9168 11.5275 16.9168 9.91667Z" stroke="white" stroke-width="1.5" stroke-linecap="round" stroke-linejoin="bevel"/>
</svg>
