<svg width="107" height="37" viewBox="0 0 107 37" fill="none" xmlns="http://www.w3.org/2000/svg">
<path d="M0.799805 0.917725H4.16089L12.6541 11.9817V3.97412C12.6541 3.16797 12.47 2.57129 12.1018 2.18408C11.7654 1.82861 11.2639 1.64453 10.5974 1.63184V0.917725H15.52V1.63184C15.0186 1.63184 14.644 1.70166 14.3965 1.84131C14.1489 1.98096 13.9331 2.23486 13.749 2.60303C13.5649 2.97119 13.4729 3.37427 13.4729 3.81226V15H12.5779L3.78955 3.48853V11.9817C3.78955 12.7498 3.98315 13.3242 4.37036 13.7051C4.75757 14.0796 5.35742 14.2732 6.16992 14.2859V15H0.799805V14.2859C1.47266 14.2605 2.00586 14.0415 2.39941 13.6289C2.79297 13.21 2.98975 12.699 2.98975 12.0959V2.5459L2.82788 2.37451C2.5105 2.03174 2.28516 1.82861 2.15186 1.76514C1.96777 1.67627 1.72974 1.63184 1.43774 1.63184H0.799805V0.917725ZM19.7902 5.9165V11.8293C19.7902 12.553 19.9711 13.1116 20.3329 13.5051C20.7011 13.8987 21.174 14.0955 21.7516 14.0955C22.4626 14.0955 23.0656 13.8098 23.5607 13.2385C24.0622 12.6609 24.3129 11.9404 24.3129 11.0771V7.73511C24.3129 7.43042 24.2018 7.19556 23.9797 7.03052C23.7638 6.85913 23.3449 6.76392 22.7228 6.74487V6.07837L25.8554 5.9165V13.2385C25.8554 13.575 25.9506 13.8352 26.141 14.0193C26.3315 14.197 26.5981 14.2859 26.9408 14.2859H27.5026V14.9238L24.5033 15L24.3129 13.2385C23.7797 13.8669 23.2433 14.3398 22.7038 14.6572C22.1642 14.9746 21.6183 15.1333 21.0661 15.1333C20.2599 15.1333 19.5839 14.8635 19.038 14.324C18.4858 13.7908 18.2096 12.8862 18.2096 11.6104V7.73511C18.2096 7.39233 18.0732 7.13208 17.8002 6.95435C17.6098 6.82739 17.2194 6.75757 16.6291 6.74487V6.07837L19.7902 5.9165ZM31.6109 0.755859V7.38281C31.9855 6.85596 32.4012 6.4624 32.8583 6.20215C33.3153 5.94189 33.8136 5.81177 34.3531 5.81177C35.4005 5.81177 36.286 6.22119 37.0096 7.04004C37.7333 7.85889 38.0951 8.93799 38.0951 10.2773C38.0951 11.731 37.7047 12.9053 36.9239 13.8003C36.1495 14.689 35.1879 15.1333 34.0389 15.1333C33.493 15.1333 32.9979 15.0254 32.5536 14.8096C32.1092 14.5938 31.6522 14.2288 31.1825 13.7146C30.8207 14.2922 30.4715 14.7651 30.1351 15.1333L29.7543 15C29.932 14.27 30.0209 13.5083 30.0209 12.7148V2.63159C30.0209 2.32056 29.9098 2.07617 29.6876 1.89844C29.4718 1.7207 29.1639 1.63184 28.764 1.63184H28.3641V0.917725L31.6109 0.755859ZM34.0104 6.64966C33.2931 6.64966 32.7091 6.96387 32.2584 7.59229C31.8077 8.21436 31.5824 9.24585 31.5824 10.6868C31.5824 12.0579 31.8046 13.0386 32.2489 13.6289C32.6932 14.2192 33.274 14.5144 33.9913 14.5144C34.6388 14.5144 35.1593 14.2224 35.5528 13.6384C36.048 12.9021 36.2955 11.8516 36.2955 10.4868C36.2955 9.14111 36.0765 8.16675 35.6385 7.56372C35.2069 6.95435 34.6642 6.64966 34.0104 6.64966ZM39.7564 6.07837L42.9651 5.9165V9.52515C43.3079 8.33813 43.7205 7.43994 44.2029 6.83057C44.6853 6.22119 45.282 5.9165 45.993 5.9165C46.4754 5.9165 46.8594 6.06567 47.1451 6.36401C47.437 6.65601 47.583 7.04956 47.583 7.54468C47.583 7.94458 47.4847 8.25562 47.2879 8.47778C47.0975 8.69995 46.8562 8.81104 46.5642 8.81104C46.2786 8.81104 46.0469 8.71582 45.8692 8.52539C45.6978 8.33496 45.6121 8.07788 45.6121 7.75415C45.6121 7.54468 45.6629 7.3479 45.7644 7.16382C45.8597 6.99878 45.9073 6.90039 45.9073 6.86865C45.9073 6.77344 45.847 6.72583 45.7264 6.72583C45.4661 6.72583 45.1709 6.87817 44.8409 7.18286C44.3838 7.60815 44.0315 8.19214 43.784 8.93481C43.4031 10.0901 43.2127 11.0137 43.2127 11.7056V13.6194C43.2127 13.8352 43.2889 14.0002 43.4412 14.1145C43.5935 14.2288 43.8538 14.2859 44.222 14.2859H45.355V15H39.8135V14.2859H40.699C40.9974 14.2859 41.2227 14.2288 41.375 14.1145C41.5274 13.9939 41.6036 13.8511 41.6036 13.686V8.00171C41.6036 7.57007 41.5115 7.25586 41.3274 7.05908C41.1433 6.85596 40.8799 6.75439 40.5371 6.75439H39.7564V6.07837ZM58.185 14.0193L58.5278 14.5525C58.0644 15.0286 57.5503 15.2666 56.9853 15.2666C56.5537 15.2666 56.1887 15.1492 55.8904 14.9143C55.5984 14.6794 55.3413 14.2668 55.1191 13.6765C54.5161 14.3113 53.9861 14.7366 53.529 14.9524C53.072 15.1619 52.5229 15.2666 51.8818 15.2666C50.9677 15.2666 50.2727 15.0698 49.7966 14.6763C49.3205 14.2827 49.0825 13.7781 49.0825 13.1624C49.0825 12.2356 49.6252 11.4675 50.7107 10.8582C51.8025 10.2424 53.2529 9.83301 55.062 9.62988V8.27783C55.062 7.79541 54.8684 7.38281 54.4812 7.04004C54.094 6.69727 53.602 6.52588 53.0053 6.52588C52.4531 6.52588 51.977 6.64014 51.5771 6.86865C51.2915 7.04004 51.1487 7.20825 51.1487 7.37329C51.1487 7.46851 51.2248 7.61768 51.3772 7.8208C51.5612 8.07471 51.6533 8.30005 51.6533 8.49683C51.6533 8.78247 51.5612 9.01733 51.3772 9.20142C51.1931 9.37915 50.9519 9.46802 50.6535 9.46802C50.3362 9.46802 50.0695 9.36011 49.8537 9.14429C49.6443 8.92847 49.5395 8.65234 49.5395 8.31592C49.5395 7.6875 49.8918 7.11304 50.5964 6.59253C51.3073 6.07202 52.2373 5.81177 53.3862 5.81177C54.4463 5.81177 55.2556 6.04028 55.8142 6.49731C56.3728 6.96069 56.6521 7.52246 56.6521 8.18262V13.0576C56.6521 13.4893 56.7219 13.8066 56.8615 14.0098C57.0012 14.2192 57.1821 14.324 57.4043 14.324C57.6518 14.324 57.9121 14.2224 58.185 14.0193ZM55.062 10.2583C53.4497 10.4805 52.3071 10.8423 51.6342 11.3438C51.1328 11.7246 50.882 12.2642 50.882 12.9624C50.882 13.4512 51.0122 13.8352 51.2724 14.1145C51.5327 14.3875 51.8723 14.5239 52.2912 14.5239C53.0403 14.5239 53.6877 14.2415 54.2336 13.6765C54.7859 13.1052 55.062 12.3911 55.062 11.5342V10.2583Z" fill="white"/>
<path d="M33.3115 25.4505L32.5705 25.704C32.0115 24.794 31.329 24.0075 30.523 23.3445C29.535 22.5385 28.5925 22.1355 27.6955 22.1355C26.9935 22.1355 26.4085 22.324 25.9405 22.701C25.4855 23.065 25.258 23.585 25.258 24.261C25.258 24.95 25.5895 25.5025 26.2525 25.9185C26.5905 26.1265 27.234 26.38 28.183 26.679L29.3335 27.0495C30.8155 27.5305 31.9075 28.0635 32.6095 28.6485C33.5845 29.4545 34.072 30.514 34.072 31.827C34.072 33.127 33.604 34.206 32.668 35.064C31.732 35.922 30.6075 36.351 29.2945 36.351C28.8915 36.351 28.495 36.312 28.105 36.234C27.715 36.169 27.2925 36.065 26.8375 35.922C26.6685 35.87 26.506 35.8245 26.35 35.7855C26.194 35.7335 26.025 35.7075 25.843 35.7075C25.648 35.7075 25.4725 35.7335 25.3165 35.7855C25.1735 35.8375 24.7705 36.0195 24.1075 36.3315L22.84 31.827L23.6005 31.5735C24.3025 32.7045 25.05 33.608 25.843 34.284C26.87 35.155 27.923 35.5905 29.002 35.5905C29.743 35.5905 30.3995 35.3565 30.9715 34.8885C31.5565 34.4205 31.849 33.8225 31.849 33.0945C31.849 32.3925 31.537 31.827 30.913 31.398C30.562 31.151 29.938 30.891 29.041 30.618C27.793 30.215 26.909 29.8965 26.389 29.6625C25.375 29.2075 24.621 28.694 24.127 28.122C23.503 27.407 23.191 26.5295 23.191 25.4895C23.191 24.2805 23.6135 23.2925 24.4585 22.5255C25.3035 21.7585 26.337 21.375 27.559 21.375C27.936 21.375 28.287 21.4075 28.612 21.4725C28.937 21.5245 29.301 21.622 29.704 21.765C29.938 21.843 30.094 21.895 30.172 21.921C30.25 21.947 30.367 21.96 30.523 21.96C30.757 21.96 31.017 21.8885 31.303 21.7455C31.589 21.5895 31.8295 21.4205 32.0245 21.2385L33.3115 25.4505ZM35.1699 31.437C35.1699 29.864 35.7484 28.5965 36.9054 27.6345C37.9194 26.7895 39.0959 26.367 40.4349 26.367C41.9169 26.367 43.1064 26.874 44.0034 27.888C44.7964 28.785 45.1929 29.8315 45.1929 31.0275C45.1929 32.5355 44.7249 33.7835 43.7889 34.7715C42.8659 35.7465 41.6569 36.234 40.1619 36.234C38.7839 36.234 37.6074 35.779 36.6324 34.869C35.6574 33.959 35.1699 32.815 35.1699 31.437ZM37.9779 31.3785C37.9779 32.4055 38.1079 33.2635 38.3679 33.9525C38.7579 34.9665 39.3754 35.4735 40.2204 35.4735C41.0524 35.4735 41.6504 34.9665 42.0144 33.9525C42.2614 33.2635 42.3849 32.4055 42.3849 31.3785C42.3849 30.2605 42.2809 29.3765 42.0729 28.7265C41.7349 27.6605 41.1304 27.1275 40.2594 27.1275C39.4014 27.1275 38.7774 27.654 38.3874 28.707C38.1144 29.435 37.9779 30.3255 37.9779 31.3785ZM53.7405 34.6545C53.1165 35.1615 52.5705 35.532 52.1025 35.766C51.4785 36.078 50.8415 36.234 50.1915 36.234C49.3075 36.234 48.638 35.9675 48.183 35.4345C47.741 34.9015 47.52 34.206 47.52 33.348V29.838C47.52 29.253 47.4355 28.8305 47.2665 28.5705C47.0455 28.2325 46.6685 28.031 46.1355 27.966V27.3615L50.328 26.172V33.309C50.328 33.686 50.4515 33.9915 50.6985 34.2255C50.9455 34.4595 51.277 34.5765 51.693 34.5765C52.044 34.5765 52.4145 34.466 52.8045 34.245C53.0385 34.115 53.3505 33.881 53.7405 33.543V29.838C53.7405 29.253 53.656 28.8305 53.487 28.5705C53.266 28.2325 52.889 28.031 52.356 27.966V27.3615L56.5485 26.172V33.5625C56.5485 34.1475 56.6395 34.5895 56.8215 34.8885C57.0165 35.1745 57.3935 35.3435 57.9525 35.3955V36H53.7405V34.6545ZM62.9998 26.601V27.2055C62.7398 27.2055 62.5253 27.251 62.3563 27.342C62.1873 27.433 62.1028 27.602 62.1028 27.849C62.1028 27.966 62.1158 28.083 62.1418 28.2C62.1808 28.317 62.2328 28.4535 62.2978 28.6095L64.2088 33.192L65.6518 29.8965C65.7558 29.6755 65.8533 29.4285 65.9443 29.1555C66.0353 28.8695 66.0808 28.629 66.0808 28.434C66.0808 28.07 65.9638 27.784 65.7298 27.576C65.4958 27.368 65.1903 27.2445 64.8133 27.2055V26.601H68.9863V27.2055C68.3753 27.4525 67.9398 27.719 67.6798 28.005C67.4848 28.226 67.2378 28.6745 66.9388 29.3505L63.9943 36.1365H62.5318L59.3338 28.7655C59.0998 28.2715 58.9048 27.94 58.7488 27.771C58.5278 27.537 58.1833 27.3485 57.7153 27.2055V26.601H62.9998ZM71.8704 31.2615C71.8704 32.2365 72.1629 33.0945 72.7479 33.8355C73.3979 34.6545 74.2104 35.064 75.1854 35.064C75.7184 35.064 76.2449 34.9275 76.7649 34.6545C77.1939 34.4335 77.6229 34.0955 78.0519 33.6405L78.5199 34.05C77.9089 34.778 77.2459 35.324 76.5309 35.688C75.8289 36.052 75.0164 36.234 74.0934 36.234C72.6894 36.234 71.5129 35.818 70.5639 34.986C69.5629 34.102 69.0624 32.9645 69.0624 31.5735C69.0624 30.2475 69.4849 29.071 70.3299 28.044C71.2529 26.926 72.4554 26.367 73.9374 26.367C75.2764 26.367 76.3619 26.8285 77.1939 27.7515C78.0259 28.6745 78.4419 29.8445 78.4419 31.2615H71.8704ZM75.9459 30.423C75.9459 29.37 75.8224 28.5965 75.5754 28.1025C75.2764 27.5045 74.7629 27.2055 74.0349 27.2055C73.2809 27.2055 72.7024 27.5825 72.2994 28.3365C71.9874 28.9215 71.8314 29.617 71.8314 30.423H75.9459ZM83.4955 34.128C83.4955 34.635 83.6255 34.986 83.8855 35.181C84.0805 35.324 84.3665 35.3955 84.7435 35.3955V36H79.4005V35.3955C79.8425 35.3955 80.1415 35.324 80.2975 35.181C80.5575 34.947 80.6875 34.4855 80.6875 33.7965V29.838C80.6875 29.253 80.603 28.8305 80.434 28.5705C80.213 28.2325 79.836 28.031 79.303 27.966V27.3615L83.4955 26.172V27.966C84.2365 27.433 84.7565 27.082 85.0555 26.913C85.7055 26.549 86.3035 26.367 86.8495 26.367C87.6685 26.367 88.3575 26.679 88.9165 27.303C89.4235 27.875 89.677 28.5055 89.677 29.1945V34.128C89.677 34.635 89.807 34.986 90.067 35.181C90.262 35.324 90.548 35.3955 90.925 35.3955V36H85.582V35.3955C86.024 35.3955 86.323 35.324 86.479 35.181C86.739 34.947 86.869 34.4855 86.869 33.7965V30.5205C86.869 29.5845 86.7455 28.9345 86.4985 28.5705C86.2645 28.2065 85.868 28.0245 85.309 28.0245C84.971 28.0245 84.633 28.1285 84.295 28.3365C84.022 28.5055 83.7555 28.746 83.4955 29.058V34.128ZM91.7277 36V35.3955C92.1697 35.3955 92.4687 35.324 92.6247 35.181C92.8847 34.947 93.0147 34.4855 93.0147 33.7965V29.838C93.0147 29.253 92.9302 28.8305 92.7612 28.5705C92.5402 28.2325 92.1632 28.031 91.6302 27.966V27.3615L95.8227 26.172V34.128C95.8227 34.635 95.9527 34.986 96.2127 35.181C96.4077 35.324 96.6937 35.3955 97.0707 35.3955V36H91.7277ZM94.2822 21.375C94.7502 21.375 95.1402 21.531 95.4522 21.843C95.7642 22.155 95.9202 22.545 95.9202 23.013C95.9202 23.481 95.7642 23.871 95.4522 24.183C95.1402 24.495 94.7502 24.651 94.2822 24.651C93.8272 24.651 93.4372 24.495 93.1122 24.183C92.8002 23.858 92.6442 23.468 92.6442 23.013C92.6442 22.558 92.8002 22.1745 93.1122 21.8625C93.4372 21.5375 93.8272 21.375 94.2822 21.375ZM102.055 34.128C102.055 34.635 102.166 34.973 102.387 35.142C102.621 35.311 102.972 35.3955 103.44 35.3955V36H97.8822V35.3955C98.3892 35.3955 98.7272 35.3175 98.8962 35.1615C99.1302 34.9405 99.2472 34.4855 99.2472 33.7965V29.8965C99.2472 29.3115 99.1627 28.889 98.9937 28.629C98.7727 28.291 98.3957 28.0895 97.8627 28.0245V27.42L102.055 26.2305V28.473C102.588 27.81 103.024 27.3225 103.362 27.0105C103.973 26.4515 104.538 26.172 105.058 26.172C105.435 26.172 105.747 26.328 105.994 26.64C106.254 26.939 106.384 27.29 106.384 27.693C106.384 28.031 106.267 28.33 106.033 28.59C105.799 28.85 105.507 28.98 105.156 28.98C104.935 28.98 104.623 28.902 104.22 28.746C103.83 28.577 103.583 28.4925 103.479 28.4925C103.284 28.4925 103.03 28.6485 102.718 28.9605C102.419 29.2725 102.198 29.5455 102.055 29.7795V34.128Z" fill="#AF3714"/>
</svg>
