<svg width="26" height="26" viewBox="0 0 26 26" fill="none" xmlns="http://www.w3.org/2000/svg">
<path d="M10.8333 20.5832H6.71667C5.50322 20.5832 4.89649 20.5832 4.43302 20.347C4.02533 20.1393 3.69387 19.8078 3.48616 19.4002C3.25 18.9367 3.25 18.3299 3.25 17.1165V8.88317C3.25 7.66973 3.25 7.063 3.48616 6.59953C3.69387 6.19183 4.02533 5.86038 4.43302 5.65266C4.89649 5.4165 5.50322 5.4165 6.71667 5.4165H19.2833C20.4968 5.4165 21.1035 5.4165 21.567 5.65266C21.9747 5.86038 22.3062 6.19183 22.5138 6.59953C22.75 7.063 22.75 7.66973 22.75 8.88317V10.8332M22.3239 8.95065L16.8457 12.6028C15.4558 13.5294 14.7608 13.9927 14.0097 14.1728C13.3458 14.3318 12.6538 14.3318 11.99 14.1728C11.2388 13.9927 10.5439 13.5294 9.15389 12.6028L3.40975 8.77335M15.1667 22.7498L17.3604 22.3111C17.5516 22.2728 17.6473 22.2537 17.7364 22.2187C17.8156 22.1877 17.8909 22.1474 17.9606 22.0988C18.0392 22.0439 18.1081 21.975 18.2461 21.837L22.75 17.3332C23.3483 16.7348 23.3483 15.7648 22.75 15.1665C22.1517 14.5682 21.1817 14.5682 20.5833 15.1665L16.0795 19.6704C15.9415 19.8084 15.8726 19.8773 15.8177 19.9559C15.7691 20.0256 15.7288 20.1009 15.6978 20.1801C15.6628 20.2692 15.6437 20.3649 15.6054 20.5561L15.1667 22.7498Z" stroke="white" stroke-width="2" stroke-linecap="round" stroke-linejoin="round"/>
</svg>
