<svg width="1413" height="129" viewBox="0 0 1413 129" fill="none" xmlns="http://www.w3.org/2000/svg">
<path d="M83.6992 10.9219H112.41V141H82.332L29.207 53.5V141H0.300781V10.9219H35.8477L83.6992 93.3438V10.9219ZM162.066 98.4219C162.066 105.323 163.694 110.401 166.949 113.656C170.335 116.781 174.827 118.344 180.426 118.344C185.634 118.344 189.996 116.586 193.512 113.07C197.158 109.555 198.98 105.062 198.98 99.5938V41H227.496V141H198.98V126.547C195.335 132.146 190.777 136.508 185.309 139.633C179.97 142.758 174.501 144.32 168.902 144.32C158.616 144.32 150.087 140.87 143.316 133.969C136.676 127.068 133.355 117.172 133.355 104.281V41H162.066V98.4219ZM248.246 0.960938H276.957V56.4297C280.342 50.5703 284.704 46.013 290.043 42.7578C295.382 39.3724 301.436 37.6797 308.207 37.6797C316.41 37.6797 323.572 39.8932 329.691 44.3203C335.941 48.7474 340.759 54.9323 344.145 62.875C347.66 70.6875 349.418 79.9323 349.418 90.6094C349.418 101.286 347.66 110.661 344.145 118.734C340.759 126.677 335.941 132.862 329.691 137.289C323.572 141.716 316.41 143.93 308.207 143.93C301.436 143.93 295.382 142.302 290.043 139.047C284.704 135.661 280.342 130.974 276.957 124.984V141H248.246V0.960938ZM320.121 90.6094C320.121 81.625 318.168 74.6589 314.262 69.7109C310.486 64.763 305.277 62.2891 298.637 62.2891C291.736 62.2891 286.397 64.763 282.621 69.7109C278.845 74.6589 276.957 81.625 276.957 90.6094C276.957 99.724 278.845 106.82 282.621 111.898C286.397 116.846 291.736 119.32 298.637 119.32C305.277 119.32 310.486 116.846 314.262 111.898C318.168 106.82 320.121 99.724 320.121 90.6094ZM368.02 41H396.73V57.2109C399.986 51.3516 403.957 46.8594 408.645 43.7344C413.332 40.6094 418.085 39.0469 422.902 39.0469H429.543V68.3438H423.098C415.676 68.3438 409.426 70.2318 404.348 74.0078C399.27 77.7839 396.73 82.6016 396.73 88.4609V141H368.02V41ZM536.426 76.5469V141H507.715V126.352C504.59 131.69 500.293 135.922 494.824 139.047C489.486 142.042 483.301 143.539 476.27 143.539C469.889 143.539 464.16 142.172 459.082 139.438C454.134 136.703 450.228 132.992 447.363 128.305C444.499 123.487 443.066 118.018 443.066 111.898C443.066 102.523 445.671 95.2969 450.879 90.2188C456.087 85.1406 463.704 82.276 473.73 81.625L498.926 80.0625C502.051 79.8021 504.264 79.151 505.566 78.1094C506.999 76.9375 507.715 75.1797 507.715 72.8359V72.4453C507.715 68.6693 506.087 65.4792 502.832 62.875C499.707 60.1406 495.866 58.7734 491.309 58.7734C480.501 58.7734 474.512 63.3307 473.34 72.4453H443.848C444.629 62.0286 449.316 53.6953 457.91 47.4453C466.504 41.1953 477.572 38.0703 491.113 38.0703C500.098 38.0703 507.975 39.6979 514.746 42.9531C521.647 46.2083 526.986 50.7656 530.762 56.625C534.538 62.3542 536.426 68.9948 536.426 76.5469ZM471.973 110.141C471.973 113.656 473.34 116.521 476.074 118.734C478.939 120.818 482.65 121.859 487.207 121.859C493.066 121.859 497.949 119.971 501.855 116.195C505.762 112.289 507.715 107.536 507.715 101.938V98.2266L484.473 99.5938C476.139 100.115 471.973 103.63 471.973 110.141ZM657.809 90.8047L637.496 88.6562C624.996 87.3542 615.361 83.3177 608.59 76.5469C601.819 69.776 598.434 60.5964 598.434 49.0078C598.434 36.7682 602.991 27.0677 612.105 19.9062C621.22 12.7448 633.59 9.16406 649.215 9.16406C664.319 9.16406 676.493 12.8099 685.738 20.1016C695.113 27.3932 700.452 37.4193 701.754 50.1797H672.652C670.569 38.0703 662.626 32.0156 648.824 32.0156C642.444 32.0156 637.301 33.4479 633.395 36.3125C629.488 39.0469 627.535 42.7578 627.535 47.4453C627.535 54.6068 632.613 58.8385 642.77 60.1406L661.324 62.0938C689.84 65.0885 704.098 78.6953 704.098 102.914C704.098 110.987 702.014 118.018 697.848 124.008C693.681 129.867 687.822 134.424 680.27 137.68C672.848 140.935 664.059 142.562 653.902 142.562C637.626 142.562 624.54 138.852 614.645 131.43C604.749 123.878 599.02 113.656 597.457 100.766H626.949C629.033 113.266 638.082 119.516 654.098 119.516C660.478 119.516 665.556 118.083 669.332 115.219C673.238 112.354 675.191 108.513 675.191 103.695C675.191 96.2734 669.397 91.9766 657.809 90.8047ZM721.137 90.6094C721.137 79.9323 723.22 70.6875 727.387 62.875C731.684 54.9323 737.608 48.7474 745.16 44.3203C752.842 39.8932 761.827 37.6797 772.113 37.6797C782.27 37.6797 791.124 39.8932 798.676 44.3203C806.358 48.7474 812.283 54.9323 816.449 62.875C820.746 70.6875 822.895 79.9323 822.895 90.6094C822.895 101.286 820.746 110.661 816.449 118.734C812.283 126.677 806.358 132.862 798.676 137.289C791.124 141.716 782.27 143.93 772.113 143.93C761.827 143.93 752.842 141.716 745.16 137.289C737.608 132.862 731.684 126.677 727.387 118.734C723.22 110.661 721.137 101.286 721.137 90.6094ZM793.598 90.6094C793.598 81.625 791.645 74.6589 787.738 69.7109C783.962 64.763 778.754 62.2891 772.113 62.2891C765.212 62.2891 759.809 64.763 755.902 69.7109C752.126 74.6589 750.238 81.625 750.238 90.6094C750.238 99.724 752.126 106.82 755.902 111.898C759.809 116.846 765.212 119.32 772.113 119.32C778.754 119.32 783.962 116.846 787.738 111.898C791.645 106.82 793.598 99.724 793.598 90.6094ZM870.207 98.4219C870.207 105.323 871.835 110.401 875.09 113.656C878.475 116.781 882.967 118.344 888.566 118.344C893.775 118.344 898.137 116.586 901.652 113.07C905.298 109.555 907.121 105.062 907.121 99.5938V41H935.637V141H907.121V126.547C903.475 132.146 898.918 136.508 893.449 139.633C888.111 142.758 882.642 144.32 877.043 144.32C866.757 144.32 858.228 140.87 851.457 133.969C844.816 127.068 841.496 117.172 841.496 104.281V41H870.207V98.4219ZM952.676 41H982.754L1004.43 114.438L1025.33 41H1055.61L1020.45 141H987.637L952.676 41ZM1065.22 90.6094C1065.22 79.9323 1067.24 70.7526 1071.28 63.0703C1075.31 55.388 1081.04 49.4635 1088.46 45.2969C1095.89 41.1302 1104.68 39.0469 1114.83 39.0469C1124.86 39.0469 1133.71 41.3255 1141.39 45.8828C1149.21 50.3099 1155.33 56.4948 1159.75 64.4375C1164.31 72.25 1166.59 81.2344 1166.59 91.3906V97.8359H1094.71C1096.54 112.81 1103.7 120.297 1116.2 120.297C1126.88 120.297 1133.06 116 1134.75 107.406H1165.22C1163.27 119.255 1158.06 128.109 1149.6 133.969C1141.26 139.698 1130.07 142.562 1116 142.562C1105.59 142.562 1096.54 140.479 1088.86 136.312C1081.3 132.016 1075.44 126.026 1071.28 118.344C1067.24 110.531 1065.22 101.286 1065.22 90.6094ZM1115.03 59.75C1109.69 59.75 1105.33 61.3125 1101.94 64.4375C1098.69 67.4323 1096.47 72.25 1095.3 78.8906H1135.73C1135.21 73.0312 1133.06 68.4089 1129.29 65.0234C1125.64 61.5078 1120.89 59.75 1115.03 59.75ZM1252.77 84.3594C1252.77 77.1979 1251.01 71.9896 1247.5 68.7344C1243.98 65.349 1239.29 63.6562 1233.43 63.6562C1227.96 63.6562 1223.41 65.4792 1219.76 69.125C1216.12 72.7708 1214.29 77.3932 1214.29 82.9922V141H1185.39V41H1214.29V55.8438C1217.94 50.1146 1222.5 45.6875 1227.96 42.5625C1233.56 39.3073 1239.23 37.6797 1244.96 37.6797C1255.5 37.6797 1264.23 41.1953 1271.13 48.2266C1278.03 55.2578 1281.48 65.2839 1281.48 78.3047V141H1252.77V84.3594ZM1300.47 4.86719H1331.92V29.0859H1300.47V4.86719ZM1301.84 41H1330.55V141H1301.84V41ZM1351.11 41H1379.82V57.2109C1383.07 51.3516 1387.04 46.8594 1391.73 43.7344C1396.42 40.6094 1401.17 39.0469 1405.99 39.0469H1412.63V68.3438H1406.18C1398.76 68.3438 1392.51 70.2318 1387.43 74.0078C1382.36 77.7839 1379.82 82.6016 1379.82 88.4609V141H1351.11V41Z" fill="white"/>
</svg>
