<svg width="28" height="28" viewBox="0 0 28 28" fill="none" xmlns="http://www.w3.org/2000/svg">
<g clip-path="url(#clip0_250_140)">
<path d="M27.5978 14.5419L20.9528 14.6338C20.9994 9.7894 22.3654 9.22066 24.0884 9.03988L24.7525 8.94821L24.6788 3.623L23.9126 3.67471C21.6616 3.83262 19.1766 4.27319 17.5433 6.34748C16.1116 8.16586 15.5101 11.1126 15.5725 15.6224L15.6881 23.9791L27.7261 23.8125L27.5978 14.5419Z" fill="black"/>
<path d="M0.822312 23.6846L0.713598 15.8279C0.651468 11.3379 1.2812 8.54407 2.59959 6.86934C3.99643 5.09533 6.11007 4.6024 8.21271 4.4184L8.63318 4.38523L8.82735 4.3718L8.88766 8.72978L8.70149 8.75678L8.70248 8.75774C7.81116 8.85283 6.86988 9.06353 6.19317 10.0084C5.5461 10.9119 5.20624 12.401 5.18278 14.8402L5.17814 15.3521L11.7459 15.2612L11.8603 23.5319L0.822312 23.6846Z" fill="black" stroke="black"/>
</g>
<defs>
<clipPath id="clip0_250_140">
<rect width="27.3994" height="27.3994" fill="white" transform="translate(27.7759 27.397) rotate(179.207)"/>
</clipPath>
</defs>
</svg>
