<svg width="30" height="30" viewBox="0 0 30 30" fill="none" xmlns="http://www.w3.org/2000/svg">
<path d="M17.8309 19.9221L15.6841 17.7933C14.6975 16.8149 14.2041 16.3256 13.6361 16.1421C13.1365 15.9806 12.5988 15.9806 12.099 16.1421C11.5311 16.3256 11.0377 16.8149 10.051 17.7933L5.05241 22.8277M17.8309 19.9221L18.2575 19.4989C19.265 18.4999 19.7686 18.0004 20.3466 17.8181C20.8549 17.6578 21.401 17.664 21.9055 17.836C22.479 18.0316 22.9711 18.5425 23.9552 19.5644L25 20.6251M17.8309 19.9221L22.775 24.9535M5.05241 22.8277C5.0908 23.1532 5.15729 23.4089 5.27249 23.635C5.51216 24.1054 5.89463 24.4879 6.36503 24.7275C6.8998 25 7.59986 25 9 25H21C21.7766 25 22.3379 25 22.775 24.9535M5.05241 22.8277C5 22.3832 5 21.8082 5 21V9C5 7.59987 5 6.8998 5.27249 6.36503C5.51216 5.89461 5.89463 5.51216 6.36503 5.27249C6.8998 5 7.59986 5 9 5H13.75M22.775 24.9535C23.1259 24.9161 23.3969 24.8489 23.635 24.7275C24.1054 24.4879 24.4879 24.1054 24.7275 23.635C25 23.1003 25 22.4001 25 21V16.25M22.5 11.25V7.5M22.5 7.5V3.75M22.5 7.5H26.25M22.5 7.5H18.75" stroke="black" stroke-opacity="0.7" stroke-width="1.5" stroke-linecap="round" stroke-linejoin="round"/>
</svg>
